<?xml version="1.0" encoding="UTF-8"?>
<svg id="Layer_1" data-name="Layer 1" xmlns="http://www.w3.org/2000/svg" viewBox="0 0 1080 1080">
  <defs>
    <style>
      .cls-1 {
        fill: #fff;
      }

      .cls-2 {
        fill: #f69844;
      }
    </style>
  </defs>
  <path class="cls-2" d="m284.55,410.21c4.65-.79,9.08,2.24,9.92,6.88.86,4.65-2.22,9.1-6.87,9.95-1.44.35-17.37,1.65-22.7.23,11.18,44.62,39.65,41.5,41.1,41.31,4.52-.71,8.97,2.47,9.71,7.1.75,4.66-2.43,9.04-7.08,9.8-1.7.1-8.06.46-11.4-.37-.31,13.96,1.46,28.93,3.31,40h0c1.85,12.31,20.13,13.49,23.32,1.39,6.06-25.69,23.15-59.16,44.48-71.99-11.52-4.36-19.36-8.75-20.12-9.19-9.67-5.63-1.28-20.32,8.46-14.86.4.23,40.7,22.85,71.18,13.84,21.75-5.33,36.91-35.12,28.71-55.34-9.58-26.38-45.97-41.69-46.34-41.84-10.3-4.32-3.83-19.99,6.51-15.81,1.18.49,20.25,8.51,36.42,23.73,8.89-8.11,15.06-23.2,4.58-34.32-18.25-24.74-66.84-19.79-74.57-52.67-.88-4.64,2.17-9.11,6.81-9.99,4.55-.85,9.12,2.16,10,6.81.63,10.51,26.72,17.27,39.81,23.18,7.59-36.69,34.17-40.32,35.41-40.46,10.81-1.05,13.04,15.24,2.1,16.97-.76.12-17.7,3.08-21.64,31.77,29.03,17.81,32.8,49.67,8.81,71.6,6.86,9.38,11.42,21.29,11.46,32.96,42.49,11.77,71.4-11.46,53.42-47.8-5.33-9.83,9.69-17.94,15.02-8.16.2.36,2.25,4.35,4.15,10.32,7.62-5.19,30.45-23.06,24.22-47.35-7.97-31.02-36.98-34.98-49-32.02-17.12,4.23-24.33,22.29-24.39,22.44-4.07,10.48-19.86,4.4-15.99-6.05.4-1.08,10.31-26.58,36.28-32.99,2.37-.59,4.95-.95,7.62-1.16-12.64-26.02-46.29-38.48-78.54-27.25,6.68,7.16-2.61,18.13-10.82,12.84-44.39-30.48-86.55-13.77-104.25,16.57-5.53,9.75-20.32,1.37-14.93-8.35.25-.44,2.56-4.47,6.91-9.83-18.12,2.34-48.1,11.37-61.37,44.3,11.01-1.6,19.43-.68,20.14-.6,11.13,1.4,9.06,18.32-2.05,16.98-28.5-2.91-62.26,12.79-56.19,61.7,2.28,40.47,36.45,49.6,58.4,45.77Z"/>
  <path class="cls-2" d="m753.04,132.96h-426.08c-95.38,0-172.7,77.32-172.7,172.7v641.39h598.78c95.38,0,172.7-77.32,172.7-172.7v-468.69c0-95.38-77.32-172.7-172.7-172.7ZM209.93,235.7c26.84-28.87,58.59-50.66,95.11-65.47,44.33-17.98,90.57-25.01,138.14-22.59,47,2.39,91.81,13.83,133.25,36.62,40.04,22.02,71.46,53.11,94.16,92.75,3.62,6.32,6.96,12.75,10.04,19.28-6.63,4.75-13.49,9.8-20.55,15.13-8.17-19.22-18.92-37.14-33-53.25-32.25-36.87-72.7-60.82-119.79-73.91-36.53-10.15-73.68-13.86-111.37-10.09-59.99,6-113.41,27.25-157,70.08-6.49,6.38-12.12,13.64-18.52,20.92-4.05-8.47-8.16-16.84-11.96-25.35-.44-.98.54-3.1,1.49-4.12Zm34.59,56.23c18.69-71.35,95.91-67.78,96.67-67.72.93.06,1.78.36,2.6.69,7.24-5.17,16.05-9.79,26.5-12.45,18.49-4.7,38.2-2.25,58.78,7.08,53.3-23.5,102.7-2.38,117.96,40.52,17.82,4.79,35.73,18.09,42.27,43.58,10.31,42.36-33.68,68.75-37.64,68.79,3.61,39.58-45.03,56.84-78.17,45.45-9.72,37.43-48.57,52.53-83.42,43.09-6.77,3.58-27.23,15.73-37.23,36.79-13.69,25.37-9.29,52.56-40.47,54.48-36.12-1.97-31.37-44.31-31.94-72.81-13.24-7.25-27.47-22.64-33.77-55.1-.04-3.56-9.65-5.29-13.22-9.2-36.57-27.1-33.32-107.55,11.09-123.18Zm268,641.04c-17.27,0-31.28-14-31.28-31.28s14-31.28,31.28-31.28,31.28,14,31.28,31.28-14,31.28-31.28,31.28Zm256.52-368.25c-2.93,13.35-12.09,20.68-24.51,24.53-3.73,1.16-7.68,1.62-11.51,2.49-6.45,1.48-8.11,4.22-5.95,10.54,1.63,4.77,4.03,9.28,5.58,14.07,3.27,10.11.98,17.92-7.42,24.4-4.34,3.34-5.34,5.9-1.95,10.98,6.01,8.99,4.43,21.97-4.4,29.12-9.85,7.97-10.5,17.11-7.77,28.12,3.23,13.03,3.16,26.08-2.65,38.51-9.59,20.51-26.86,30.65-48.5,30.68-22.78.04-45.56-2.93-68.34-4.61-7.28-.54-14.56-1.15-21.84-1.74-19.05-1.54-30.79,9.55-37.22,23.56-7.16,15.6-8.89,32.41-9.71,49.31-.08,1.65-.11,3.3-.12,4.96-.02,5.7-4.63,10.31-10.32,10.31h-4.21c-5.8,0-10.52-4.78-10.32-10.57,0-.03,0-.07,0-.1.64-17.83,2.32-35.52,7.29-52.75,6.29-21.8,18.14-39,40.01-47.62,13.21-5.21,26.88-3.56,40.53-2.08,21.23,2.3,42.45,4.69,63.72,6.5,30.04,2.56,41.01-17.32,36.42-41.82-1.23-6.57-1.92-13.36-1.8-20.03.16-8.68,4.43-15.64,11.11-21.25,6.93-5.81,7.39-9,3.01-17.01-2.32-4.23-6.87-8.63-6.46-12.54.35-3.31,6.51-5.89,9.87-9.03,5.04-4.7,6.07-10.54,4.14-17-1.71-5.73-3.88-11.36-5.14-17.19-2.79-12.92,3.47-23.07,16.22-26.67,4.85-1.37,9.89-2.09,14.79-3.3,10.39-2.56,13.59-10.18,7.54-18.99-10.29-14.99-21.3-29.49-31.38-44.61-7.36-11.04-14.08-22.56-20.42-34.22-6.29-11.58-6.68-23.74-2.53-36.44,4.7-14.37,4.99-28.73,3.08-43.02,7.3-7.52,14.68-14.87,22.13-22.02,1.97,8.42,3.53,16.97,4.68,25.64,2,15.13,1.98,30.3-6,44.32-5.44,9.55-1.55,18.32,3.75,26.3,10.79,16.23,22.01,32.18,33.11,48.19,5.77,8.32,11.85,16.42,17.46,24.84,5.48,8.22,8.21,17.28,6.03,27.24Zm-221.01,135.38c-10.27-1.29-16.37-10.34-16.58-21.02-.44-22.43-.5-44.89.1-67.32.36-13.32,10.63-22.72,24.14-23.1,13.13-.36,26.27-.08,39.4-.08v.28c14.29,0,28.6-.5,42.87.15,12.49.57,21.84,10.35,22.04,22.79.36,21.78.41,43.57-.04,65.34-.29,13.89-11.34,24.42-25.56,25.04-9.79.43-19.62.3-29.42.12-3.33-.06-5.49,1.08-7.67,3.51-5.33,5.93-10.73,11.86-16.66,17.16-2.5,2.24-6.32,3.73-9.71,4.1-6.57.72-10.48-2.64-10.14-9.22.5-9.72-.24-16.2-12.77-17.78Zm249.46-340.53c11.43-55.11,8.7-79.85,8.7-79.85-36.1,21.35-71.42,49.67-105.24,82.12-7.45,7.14-14.83,14.5-22.13,22.01-161.25,166.04-283.27,414.5-283.27,414.5-74.75-129.11-178.74-214.15-178.74-214.15,74.15-3.85,166.23,59.34,166.23,59.34,84.74-152.54,195.52-256.42,278.86-319.41,7.05-5.34,13.92-10.38,20.55-15.14,58.93-42.23,99.77-61.69,99.77-61.69-25.17-13.82-82.21-19.29-82.21-19.29,101.62-51.61,178.59-18.76,178.59-18.76-6.16,94.36-81.12,150.32-81.12,150.32Z"/>
  <path class="cls-2" d="m571.36,700.78c.15,4.45.39,8.89.59,13.34.84.53,1.68,1.07,2.52,1.6.88-1.62,1.48-3.49,2.69-4.81,5.16-5.64,10.25-11.38,15.89-16.5,2.2-2,5.76-3.31,8.77-3.44,9.46-.42,18.95-.06,28.42-.12,11.59-.08,18.38-6.58,18.48-18.09.15-18.95.1-37.91-.03-56.86-.06-9.66-6.6-16.12-16.41-16.17-24.61-.11-49.21-.12-73.82-.02-9.8.04-15.71,5.72-15.81,15.45-.21,20.28-.21,40.57-.04,60.85.08,8.66,5.7,14.08,14.43,14.71,1.49.11,2.99.05,4.49.13,6.7.32,9.62,3.31,9.84,9.93Zm46.82-57.55c.12-6.75,2.77-9.38,8.9-9.29,4.94.07,7.25,2.88,7.36,9.17.08,4.49.02,8.98.02,13.47h.03c0,4.66.12,9.32-.03,13.97-.19,5.9-3.36,9.54-8.01,9.55-5.45,0-8.29-3.04-8.35-9.43-.09-9.15-.07-18.29.09-27.44Zm-26.44-19.95c.27-5.05,3.34-8.16,7.63-8.09,4.91.09,7.91,2.94,8.01,8.18.16,8.29.04,16.59.04,24.89h-.02c0,7.47.06,14.93-.02,22.4-.07,6.29-2.4,9.16-7.23,9.24-5.6.09-8.24-2.66-8.33-9.33-.15-12.28-.08-24.56-.1-36.83,0-3.48-.17-6.98.01-10.45Zm-26.01,28.93c.12-5.22,3.47-8.27,8.58-8.25,5.04.02,7.63,2.71,7.85,8.18.06,1.66.04,3.32.04,4.98,0,1.49,0,2.99-.01,4.48,0,3.32.13,6.64-.03,9.95-.27,5.71-3.11,8.65-8.12,8.67-4.95.02-8.11-3.12-8.26-8.6-.17-6.46-.2-12.94-.05-19.4Z"/>
  <path class="cls-1" d="m570.94,727.08c3.38-.37,7.2-1.86,9.71-4.1,5.93-5.3,11.33-11.23,16.66-17.16,2.19-2.43,4.34-3.57,7.67-3.51,9.81.18,19.63.31,29.42-.12,14.22-.63,25.27-11.16,25.56-25.04.45-21.77.4-43.57.04-65.34-.21-12.43-9.56-22.22-22.04-22.79-14.26-.65-28.57-.15-42.86-.15v-.28c-13.14,0-26.28-.29-39.4.08-13.5.38-23.78,9.78-24.14,23.1-.6,22.43-.54,44.88-.1,67.32.21,10.68,6.3,19.72,16.58,21.02,12.53,1.58,13.27,8.06,12.77,17.78-.34,6.58,3.57,9.93,10.14,9.22Zm-13.91-36.37c-8.73-.63-14.35-6.05-14.43-14.71-.18-20.28-.18-40.57.04-60.85.1-9.73,6.02-15.41,15.81-15.45,24.61-.11,49.21-.09,73.82.02,9.81.04,16.35,6.5,16.41,16.17.12,18.95.18,37.91.03,56.86-.09,11.52-6.88,18.02-18.48,18.09-9.48.06-18.97-.3-28.42.12-3.01.13-6.57,1.45-8.77,3.44-5.64,5.12-10.73,10.87-15.89,16.5-1.21,1.32-1.81,3.19-2.69,4.81-.84-.53-1.68-1.07-2.52-1.6-.2-4.45-.44-8.89-.59-13.34-.22-6.62-3.15-9.61-9.84-9.93-1.49-.07-3-.02-4.49-.13Z"/>
  <path class="cls-1" d="m591.83,670.56c.08,6.67,2.72,9.42,8.33,9.33,4.83-.08,7.16-2.95,7.23-9.24.08-7.47.02-14.93.02-22.4h.02c0-8.3.12-16.59-.04-24.89-.1-5.25-3.1-8.1-8.01-8.18-4.29-.08-7.36,3.04-7.63,8.09-.19,3.47-.02,6.97-.01,10.45.02,12.28-.05,24.56.1,36.83Z"/>
  <path class="cls-1" d="m626.45,680.1c4.65,0,7.82-3.65,8.01-9.55.15-4.65.03-9.31.03-13.97h-.03c0-4.49.07-8.98-.02-13.47-.11-6.29-2.42-9.1-7.36-9.17-6.13-.09-8.78,2.54-8.9,9.29-.16,9.14-.18,18.29-.09,27.44.07,6.39,2.91,9.44,8.35,9.43Z"/>
  <path class="cls-1" d="m574.04,680.21c5.01-.02,7.85-2.96,8.12-8.67.16-3.31.03-6.63.03-9.95.01-1.49.02-2.99.01-4.48,0-1.66.02-3.32-.04-4.98-.21-5.47-2.81-8.16-7.85-8.18-5.11-.02-8.45,3.02-8.58,8.25-.15,6.46-.12,12.94.05,19.4.15,5.49,3.31,8.62,8.26,8.6Z"/>
  <path class="cls-1" d="m745.55,512.62c-11.11-16.02-22.33-31.96-33.11-48.19-5.3-7.97-9.18-16.75-3.75-26.3,7.98-14.03,8-29.2,6-44.32-1.15-8.68-2.71-17.23-4.68-25.64-7.45,7.15-14.83,14.5-22.13,22.02,1.9,14.29,1.62,28.65-3.08,43.02-4.15,12.7-3.76,24.86,2.53,36.44,6.34,11.66,13.06,23.18,20.42,34.22,10.08,15.12,21.09,29.63,31.38,44.61,6.05,8.81,2.85,16.43-7.54,18.99-4.9,1.21-9.94,1.93-14.79,3.3-12.75,3.6-19,13.75-16.22,26.67,1.26,5.83,3.43,11.45,5.14,17.19,1.93,6.46.9,12.3-4.14,17-3.37,3.14-9.53,5.72-9.87,9.03-.41,3.91,4.15,8.31,6.46,12.54,4.38,8.01,3.93,11.2-3.01,17.01-6.69,5.61-10.95,12.57-11.11,21.25-.12,6.67.57,13.46,1.8,20.03,4.59,24.51-6.38,44.38-36.42,41.82-21.27-1.81-42.5-4.2-63.72-6.5-13.65-1.48-27.32-3.12-40.53,2.08-21.87,8.62-33.72,25.82-40.01,47.62-4.97,17.23-6.66,34.92-7.29,52.75,0,.03,0,.07,0,.1-.2,5.79,4.53,10.57,10.32,10.57h4.21c5.7,0,10.3-4.62,10.32-10.31,0-1.66.04-3.31.12-4.96.82-16.91,2.54-33.72,9.71-49.31,6.43-14,18.17-25.09,37.22-23.56,7.28.59,14.56,1.2,21.84,1.74,22.78,1.68,45.56,4.65,68.34,4.61,21.65-.04,38.91-10.17,48.5-30.68,5.81-12.43,5.88-25.48,2.65-38.51-2.73-11.01-2.08-20.14,7.77-28.12,8.83-7.14,10.4-20.13,4.4-29.12-3.4-5.08-2.39-7.64,1.95-10.98,8.41-6.48,10.7-14.29,7.42-24.4-1.55-4.79-3.95-9.3-5.58-14.07-2.16-6.32-.5-9.06,5.95-10.54,3.83-.88,7.77-1.33,11.51-2.49,12.42-3.86,21.58-11.19,24.51-24.53,2.18-9.96-.55-19.02-6.03-27.24-5.61-8.42-11.69-16.53-17.46-24.84Z"/>
  <path class="cls-1" d="m220.4,265.18c6.4-7.28,12.03-14.54,18.52-20.92,43.6-42.83,97.01-64.08,157-70.08,37.69-3.77,74.84-.06,111.37,10.09,47.09,13.09,87.54,37.04,119.79,73.91,14.08,16.1,24.84,34.02,33,53.25,7.06-5.34,13.92-10.38,20.55-15.13-3.08-6.52-6.42-12.95-10.04-19.28-22.7-39.64-54.12-70.74-94.16-92.75-41.44-22.79-86.25-34.23-133.25-36.62-47.57-2.42-93.81,4.62-138.14,22.59-36.52,14.81-68.27,36.6-95.11,65.47-.94,1.02-1.93,3.14-1.49,4.12,3.79,8.51,7.91,16.88,11.96,25.35Z"/>
  <path class="cls-1" d="m700.01,227.99s57.03,5.47,82.21,19.29c0,0-40.84,19.46-99.77,61.69-6.64,4.76-13.5,9.8-20.55,15.14-83.35,63-194.12,166.88-278.86,319.41,0,0-92.08-63.2-166.23-59.34,0,0,103.99,85.04,178.74,214.15,0,0,122.02-248.46,283.27-414.5,7.3-7.52,14.68-14.87,22.13-22.01,33.82-32.45,69.14-60.77,105.24-82.12,0,0,2.73,24.74-8.7,79.85,0,0,74.95-55.96,81.12-150.32,0,0-76.97-32.85-178.59,18.76Z"/>
  <path class="cls-1" d="m233.43,415.11c3.58,3.9,13.19,5.63,13.22,9.2,6.3,32.46,20.53,47.85,33.77,55.1.58,28.5-4.18,70.84,31.94,72.81,31.18-1.93,26.77-29.11,40.47-54.48,10-21.06,30.46-33.21,37.23-36.79,34.85,9.44,73.7-5.66,83.42-43.09,33.14,11.38,81.78-5.87,78.17-45.45,3.96-.04,47.95-26.43,37.64-68.79-6.54-25.49-24.45-38.79-42.27-43.58-15.26-42.9-64.66-64.02-117.96-40.52-20.57-9.33-40.29-11.78-58.78-7.08-10.45,2.65-19.27,7.28-26.5,12.45-.82-.33-1.66-.63-2.6-.69-.76-.06-77.98-3.63-96.67,67.72-44.4,15.64-47.66,96.08-11.09,123.18Zm48.91-112.37c11.11,1.34,13.18-15.58,2.05-16.98-.71-.08-9.13-1-20.14.6,13.27-32.92,43.25-41.96,61.37-44.3-4.35,5.36-6.66,9.39-6.91,9.83-5.39,9.72,9.4,18.1,14.93,8.35,17.7-30.34,59.86-47.06,104.25-16.57,8.21,5.29,17.5-5.68,10.82-12.84,32.26-11.23,65.9,1.23,78.54,27.25-2.67.21-5.25.57-7.62,1.16-25.97,6.41-35.88,31.91-36.28,32.99-3.88,10.44,11.91,16.52,15.99,6.05.06-.14,7.27-18.21,24.39-22.44,12.02-2.96,41.03,1,49,32.02,6.23,24.29-16.6,42.16-24.22,47.35-1.9-5.97-3.95-9.96-4.15-10.32-5.33-9.77-20.35-1.67-15.02,8.16,17.98,36.34-10.93,59.57-53.42,47.8-.04-11.67-4.59-23.58-11.46-32.96,23.99-21.94,20.22-53.8-8.81-71.6,3.94-28.69,20.89-31.66,21.64-31.77,10.93-1.73,8.71-18.02-2.1-16.97-1.24.14-27.82,3.77-35.41,40.46-13.09-5.91-39.18-12.66-39.81-23.18-.88-4.65-5.44-7.65-10-6.81-4.64.88-7.69,5.35-6.81,9.99,7.73,32.88,56.33,27.93,74.57,52.67,10.48,11.12,4.31,26.21-4.58,34.32-16.18-15.22-35.24-23.25-36.42-23.73-10.34-4.18-16.82,11.49-6.51,15.81.37.15,36.76,15.47,46.34,41.84,8.2,20.22-6.96,50.01-28.71,55.34-30.48,9.01-70.78-13.61-71.18-13.84-9.74-5.45-18.13,9.23-8.46,14.86.77.44,8.61,4.83,20.12,9.19-21.33,12.83-38.42,46.31-44.48,71.99-3.19,12.1-21.47,10.92-23.32-1.39h0c-1.85-11.08-3.62-26.05-3.31-40,3.34.83,9.7.47,11.4.37,4.65-.75,7.83-5.14,7.08-9.8-.73-4.64-5.19-7.81-9.71-7.1-1.45.19-29.92,3.31-41.1-41.31,5.33,1.42,21.27.12,22.7-.23,4.65-.85,7.73-5.3,6.87-9.95-.83-4.64-5.27-7.67-9.92-6.88-21.95,3.83-56.12-5.3-58.4-45.77-6.07-48.91,27.7-64.6,56.19-61.7Z"/>
  <circle class="cls-1" cx="512.52" cy="901.69" r="31.28"/>
</svg>